<svg xmlns="http://www.w3.org/2000/svg" viewBox="0 0 600 600" width="600" height="600" role="img" aria-label="Hair Growth Oil — Hair Care">
  <defs>
    <linearGradient id="bg" x1="0" y1="0" x2="0" y2="1">
      <stop offset="0%" stop-color="#ffffff"/><stop offset="100%" stop-color="#eceef0"/>
    </linearGradient>
    <linearGradient id="body" x1="0" y1="0" x2="1" y2="1">
      <stop offset="0%" stop-color="#14b8a6"/><stop offset="100%" stop-color="#0f766e"/>
    </linearGradient>
    <linearGradient id="stroke" x1="0" y1="0" x2="1" y2="1">
      <stop offset="0%" stop-color="#14b8a6"/><stop offset="100%" stop-color="#0f766e"/>
    </linearGradient>
    <radialGradient id="shadow" cx="50%" cy="50%">
      <stop offset="0%" stop-color="#0f172a" stop-opacity="0.22"/>
      <stop offset="100%" stop-color="#0f172a" stop-opacity="0"/>
    </radialGradient>
  </defs>

  <rect width="600" height="600" fill="url(#bg)"/>
  <rect y="470" width="600" height="130" fill="#f6f7f8"/>
  <ellipse cx="300" cy="486" rx="168" ry="30" fill="url(#shadow)"/>

  <g transform="translate(310 300) rotate(6) scale(0.94) translate(-300 -300)">
    
    <rect x="266" y="112" width="68" height="26" rx="7" fill="#0f172a"/>
    <rect x="284" y="138" width="32" height="26" rx="5" fill="#1e293b" opacity="0.8"/>
    <path d="M246 164h108a22 22 0 0 1 22 22v212a24 24 0 0 1-24 24H248a24 24 0 0 1-24-24V186a22 22 0 0 1 22-22z" fill="url(#body)"/>
    <rect x="236" y="238" width="128" height="112" rx="9" fill="#ffffff" opacity="0.94"/>
    <rect x="258" y="262" width="84" height="9" rx="4.5" fill="#0f766e" opacity="0.85"/>
    <rect x="258" y="282" width="58" height="7" rx="3.5" fill="#1e293b" opacity="0.35"/>
    <rect x="258" y="318" width="84" height="5" rx="2.5" fill="#14b8a6" opacity="0.7"/>
  </g>

  <text x="300" y="546" font-family="ui-sans-serif,system-ui,-apple-system,sans-serif" font-size="15" font-weight="500" fill="#64748b" text-anchor="middle">Hair Growth Oil</text>
</svg>