<svg xmlns="http://www.w3.org/2000/svg" viewBox="0 0 600 600" width="600" height="600" role="img" aria-label="Chocolate Wax — Waxing">
  <defs>
    <linearGradient id="bg" x1="0" y1="0" x2="0" y2="1">
      <stop offset="0%" stop-color="#ffffff"/><stop offset="100%" stop-color="#eceef0"/>
    </linearGradient>
    <linearGradient id="body" x1="0" y1="0" x2="1" y2="1">
      <stop offset="0%" stop-color="#eab308"/><stop offset="100%" stop-color="#a16207"/>
    </linearGradient>
    <linearGradient id="stroke" x1="0" y1="0" x2="1" y2="1">
      <stop offset="0%" stop-color="#eab308"/><stop offset="100%" stop-color="#a16207"/>
    </linearGradient>
    <radialGradient id="shadow" cx="50%" cy="50%">
      <stop offset="0%" stop-color="#0f172a" stop-opacity="0.22"/>
      <stop offset="100%" stop-color="#0f172a" stop-opacity="0"/>
    </radialGradient>
  </defs>

  <rect width="600" height="600" fill="url(#bg)"/>
  <rect y="470" width="600" height="130" fill="#f6f7f8"/>
  <ellipse cx="300" cy="486" rx="168" ry="30" fill="url(#shadow)"/>

  <g transform="translate(300 300) rotate(0) scale(1) translate(-300 -300)">
    
    <rect x="186" y="150" width="228" height="60" rx="16" fill="#0f172a"/>
    <rect x="200" y="196" width="200" height="18" rx="6" fill="#1e293b" opacity="0.65"/>
    <path d="M196 210h208a20 20 0 0 1 20 20v186a26 26 0 0 1-26 26H202a26 26 0 0 1-26-26V230a20 20 0 0 1 20-20z" fill="url(#body)"/>
    <rect x="206" y="272" width="188" height="110" rx="10" fill="#ffffff" opacity="0.94"/>
    <rect x="232" y="298" width="136" height="10" rx="5" fill="#a16207" opacity="0.85"/>
    <rect x="232" y="322" width="96" height="7" rx="3.5" fill="#1e293b" opacity="0.35"/>
    <rect x="232" y="352" width="136" height="5" rx="2.5" fill="#eab308" opacity="0.7"/>
  </g>

  <text x="300" y="546" font-family="ui-sans-serif,system-ui,-apple-system,sans-serif" font-size="15" font-weight="500" fill="#64748b" text-anchor="middle">Chocolate Wax</text>
<g id="sgt-brand-tag"><rect x="23" y="534" width="180" height="43" rx="9" fill="#0f172a" fill-opacity="0.94" stroke="#f59e0b" stroke-width="2"/><circle cx="41" cy="555.5" r="5" fill="#f59e0b"/><text x="56" y="562.34" fill="#ffffff" font-family="Helvetica Neue, Helvetica, Arial, sans-serif" font-weight="700" font-size="19" letter-spacing="1.14">SGT</text><text x="102" y="559.1" fill="#f59e0b" font-family="Helvetica Neue, Helvetica, Arial, sans-serif" font-weight="600" font-size="10" letter-spacing="1.00">ORIGINAL</text></g></svg>