<svg xmlns="http://www.w3.org/2000/svg" viewBox="0 0 600 600" width="600" height="600" role="img" aria-label="Equipment Cleaning Brush Set — Cleaning &amp; Hygiene">
  <defs>
    <linearGradient id="bg" x1="0" y1="0" x2="0" y2="1">
      <stop offset="0%" stop-color="#ffffff"/><stop offset="100%" stop-color="#eceef0"/>
    </linearGradient>
    <linearGradient id="body" x1="0" y1="0" x2="1" y2="1">
      <stop offset="0%" stop-color="#22c55e"/><stop offset="100%" stop-color="#166534"/>
    </linearGradient>
    <linearGradient id="stroke" x1="0" y1="0" x2="1" y2="1">
      <stop offset="0%" stop-color="#22c55e"/><stop offset="100%" stop-color="#166534"/>
    </linearGradient>
    <radialGradient id="shadow" cx="50%" cy="50%">
      <stop offset="0%" stop-color="#0f172a" stop-opacity="0.22"/>
      <stop offset="100%" stop-color="#0f172a" stop-opacity="0"/>
    </radialGradient>
  </defs>

  <rect width="600" height="600" fill="url(#bg)"/>
  <rect y="470" width="600" height="130" fill="#f6f7f8"/>
  <ellipse cx="300" cy="486" rx="168" ry="30" fill="url(#shadow)"/>

  <g transform="translate(310 300) rotate(6) scale(0.94) translate(-300 -300)">
    
    <rect x="178" y="150" width="42" height="118" rx="20" fill="#166534" opacity="0.9"/>
      <rect x="184" y="262" width="30" height="26" rx="6" fill="#0f172a"/>
      <rect x="190" y="286" width="18" height="150" rx="9" fill="url(#body)"/><rect x="260" y="164" width="42" height="118" rx="20" fill="#166534" opacity="0.75"/>
      <rect x="266" y="276" width="30" height="26" rx="6" fill="#0f172a"/>
      <rect x="272" y="300" width="18" height="150" rx="9" fill="url(#body)"/><rect x="342" y="178" width="42" height="118" rx="20" fill="#166534" opacity="0.6000000000000001"/>
      <rect x="348" y="290" width="30" height="26" rx="6" fill="#0f172a"/>
      <rect x="354" y="314" width="18" height="150" rx="9" fill="url(#body)"/>
    <rect x="164" y="452" width="272" height="20" rx="9" fill="#0f172a" opacity="0.35"/>
  </g>

  <text x="300" y="546" font-family="ui-sans-serif,system-ui,-apple-system,sans-serif" font-size="15" font-weight="500" fill="#64748b" text-anchor="middle">Equipment Cleaning Brush Set</text>
<g id="sgt-mark" opacity="0.62"><text x="22.8" y="577.2" fill="#334155" font-family="Helvetica Neue, Helvetica, Arial, sans-serif" font-size="25.2" font-weight="600" letter-spacing="3.53">SGT</text><rect x="22.8" y="583.8" width="59.2" height="1.4" fill="#334155"/></g></svg>